<?xml version="1.0" encoding="UTF-8" standalone="no"?>
<!-- Created with Inkscape (http://www.inkscape.org/) -->

<svg
   xmlns:dc="http://purl.org/dc/elements/1.1/"
   xmlns:cc="http://creativecommons.org/ns#"
   xmlns:rdf="http://www.w3.org/1999/02/22-rdf-syntax-ns#"
   xmlns:svg="http://www.w3.org/2000/svg"
   xmlns="http://www.w3.org/2000/svg"
   xmlns:sodipodi="http://sodipodi.sourceforge.net/DTD/sodipodi-0.dtd"
   xmlns:inkscape="http://www.inkscape.org/namespaces/inkscape"
   width="80.2901mm"
   height="82.292519mm"
   viewBox="0 0 284.49248 291.58766"
   id="svg3368"
   version="1.1"
   inkscape:version="0.91 r13725"
   sodipodi:docname="LOGO_V2.0.svg">
  <defs
     id="defs3370">
    <clipPath
       clipPathUnits="userSpaceOnUse"
       id="clipPath3384">
      <path
         style="fill:#000000;fill-rule:evenodd;stroke:#000000;stroke-width:1px;stroke-linecap:butt;stroke-linejoin:miter;stroke-opacity:1"
         d="m 166.73917,361.67848 201.05013,0 L 412.46711,253.51115 431.27882,48.933823 303.12406,7.7832111 183.19941,63.042605 Z"
         id="path3386"
         inkscape:connector-curvature="0" />
    </clipPath>
  </defs>
  <sodipodi:namedview
     id="base"
     pagecolor="#ffffff"
     bordercolor="#666666"
     borderopacity="1.0"
     inkscape:pageopacity="0.0"
     inkscape:pageshadow="2"
     inkscape:zoom="0.35"
     inkscape:cx="-381.32519"
     inkscape:cy="134.36526"
     inkscape:document-units="px"
     inkscape:current-layer="layer1"
     showgrid="false"
     fit-margin-top="0"
     fit-margin-left="0"
     fit-margin-right="0"
     fit-margin-bottom="0"
     inkscape:window-width="1280"
     inkscape:window-height="962"
     inkscape:window-x="-8"
     inkscape:window-y="-8"
     inkscape:window-maximized="1" />
  <metadata
     id="metadata3373">
    <rdf:RDF>
      <cc:Work
         rdf:about="">
        <dc:format>image/svg+xml</dc:format>
        <dc:type
           rdf:resource="http://purl.org/dc/dcmitype/StillImage" />
        <dc:title></dc:title>
      </cc:Work>
    </rdf:RDF>
  </metadata>
  <g
     inkscape:label="Capa 1"
     inkscape:groupmode="layer"
     id="layer1"
     transform="translate(-229.18234,-375.1398)">
    <path
       style="display:inline;fill:#ffffff;fill-rule:evenodd;stroke:#000000;stroke-width:0.02033736px;stroke-linecap:butt;stroke-linejoin:miter;stroke-opacity:1"
       d="m 326.35987,36.015052 c -5.06738,0.01 -10.19265,0.25597 -15.36831,0.71611 -62.94156,2.69942 -140.90373,52.03498 -93.88895,184.847388 0.86503,13.32569 2.45717,26.65148 -0.80963,39.97707 -4.51528,11.45349 -14.26489,24.31312 -14.1023,40.37673 l -1.88123,10.15237 c -4.27295,10.59139 -11.94891,20.32805 -11.06822,32.21407 -4.24623,18.45624 -7.49272,35.90783 -10.30485,52.92307 -20.08725,30.64686 -10.25002,42.67973 -15.2665,62.31327 4.77479,0.91866 9.24801,2.5948 12.59483,7.10039 l -28.62466,163.7548 c -10.27153,46.31214 3.67692,29.34926 5.51536,44.02395 l 242.88841,3.25405 -7.5565,-90.03035 c 13.64218,4.7477 17.66663,-3.6199 41.02109,14.37228 7.03532,9.54213 11.36145,16.9066 21.59008,29.01572 13.17451,6.01558 23.56749,14.82612 39.94167,17.62653 8.81593,-2.41498 17.63191,-6.20275 26.44789,-10.03351 10.86388,-4.99373 0.91371,-4.76404 -1.87918,-7.14396 3.43909,-4.00064 6.19714,-7.79605 2.55188,-9.66127 l -3.74321,-2.92844 c 18.83152,-15.3005 13.65286,-45.40017 -8.39655,-51.77261 l -0.38163,-14.1895 c 5.27485,-4.82118 11.90975,-17.01753 18.66309,-29.5375 4.45835,-9.60289 8.71304,-19.71742 10.34326,-36.42462 l 2.13182,-3.27336 6.7581,-2.83538 c -1.75467,-9.42136 -5.30731,-20.5156 -7.36332,-28.02282 -0.26105,-5.04609 0.18017,-10.5806 2.71792,-17.03291 l 11.40356,1.69285 40.07452,-5.36912 7.62534,-6.55798 c 4.51147,-2.93972 4.24469,-7.93708 3.82458,-13.00046 -7.06,-0.21077 -13.57584,1.87678 -11.31894,9.58751 l -5.47422,1.91758 -3.43494,3.45145 c -12.34043,1.0614 -33.04698,2.54788 -38.91038,-2.66522 l -14.14072,-6.53878 c 1.74094,-0.89429 2.08693,-2.1121 6.86995,-2.30109 -0.0987,-1.6513 -0.13688,-3.34826 0.76333,-5.75245 0.43344,-0.74123 0.10107,-1.65349 2.67162,-1.91748 l -1.5266,-10.35454 c -0.66152,-5.52888 -3.05326,-8.88459 -5.72499,-11.88851 -8.29951,1.54218 -10.44603,5.00319 -11.44986,8.82048 -2.26638,-1.89666 -5.52138,4.59187 0.76332,-30.68011 9.90431,-33.49065 9.96538,-30.50163 17.36559,-44.19842 -7.22055,-5.92672 -15.11839,3.34655 -23.09052,14.28544 -8.56861,15.62497 -16.20178,31.82435 -20.22805,50.23855 -2.90474,-7.46117 -4.5037,-19.377 -3.14876,-24.92747 l 4.00748,-20.70908 c -14.7414,5.21653 -17.57408,9.82035 -22.61348,16.87402 -16.66701,24.31464 -15.74677,53.36925 -13.26282,66.63331 2.843,12.47181 7.48641,22.6046 12.97658,26.26978 15.70023,11.73707 23.02701,9.18746 33.10917,8.34113 l -0.76333,6.903 c -2.87126,6.46654 -6.78551,6.64502 -10.30484,9.20399 0.74398,1.79738 -1.86005,4.94061 2.28987,5.36903 l -6.10651,6.90299 c -0.54399,3.9329 -0.35315,7.42276 2.67162,9.20409 -9.89693,8.18129 -12.21853,16.36258 -16.7931,24.54396 -1.30386,4.95379 -4.60539,7.90019 -2.67168,16.10708 -4.63808,1.80073 -7.78207,6.60394 -9.54151,14.18951 -0.63366,6.95172 1.0057,8.20823 2.28992,10.35454 2.88267,4.26272 9.2504,2.92252 15.6482,1.53397 l 5.72487,-4.98551 -0.008,9.83143 c -13.1151,2.45139 -10.51413,10.16307 -22.51809,7.28651 l -10.9948,-6.94159 c -7.02311,-3.78108 -13.2745,-2.90933 -19.60364,-2.50633 -20.71365,-3.48011 -27.12031,-12.95029 -40.15925,-19.64357 l 25.34781,-174.79124 c 10.43696,-6.08102 15.02334,-16.86504 20.60975,-26.84514 0.93261,-6.90299 2.03058,-13.80599 0,-20.70899 3.22412,-2.41937 4.65317,-6.28176 5.34329,-10.73805 0.29254,-6.96988 -0.54757,-11.94842 -2.28992,-15.33996 -4.18977,-6.97246 -6.85985,-10.17798 -11.06829,-13.42257 l 15.6482,-91.2732 c 2.33782,0.67359 4.94923,-1.89216 5.34324,-4.98551 0.59489,-4.53646 -2.14471,-7.21132 -6.10651,-9.204 8.00981,-33.07837 11.31871,-37.81508 14.88481,-44.10258 -2.6197,-16.75765 -3.40221,-38.437928 -4.57997,-59.059118 -8.26932,29.273778 -16.53876,55.083418 -24.80808,75.166108 1.07721,8.29766 4.30105,6.1695 2.67162,27.61208 -3.68941,0.38351 -5.8521,2.55667 -6.48826,6.51957 0.68167,2.44499 -1.98354,3.56104 4.19834,6.9029 l -15.6482,101.62774 c -2.17722,0.75547 -4.34815,1.50664 -8.01486,3.25979 -16.8473,18.44277 -21.3691,35.43775 -24.0448,59.25088 l -36.63952,43.33555 c -11.76703,-18.91533 -25.95673,-48.64993 -33.58632,-49.08809 1.10252,-10.47398 5.27384,-16.01422 8.7783,-22.62657 12.12296,1.41874 27.4612,9.05733 34.92202,-0.76703 l 1.71756,-13.80599 c 3.33512,0.22653 4.52185,-1.2738 5.34323,-3.06794 l -2.28992,-4.60209 4.57985,-2.3009 0.76333,-4.98552 11.64077,0 -1.71751,-32.21407 c 2.91224,-8.16743 1.82124,-12.31254 1.9083,-17.64105 4.1897,-4.92599 3.47024,-12.31827 3.81664,-19.17502 l 8.77824,-31.06363 -14.12148,4.60209 c -8.27716,-16.22173 -15.12344,-23.09817 -21.37313,-26.0782 0.77678,-3.37521 -0.0655,-5.66598 -0.76333,-8.05345 -11.20505,-4.2203 -11.56364,-6.39709 -15.2665,-9.20399 2.47566,-3.33355 4.93447,-6.6735 3.435,-11.505 -0.52288,-3.16711 -3.20318,-4.36581 -6.48832,-5.75254 -0.19828,-3.9844 -0.27313,-7.87593 1.52666,-10.35454 2.68535,-0.9479 4.69398,-3.48241 8.77824,-1.15055 4.83773,-7.72133 3.48483,-15.028 0.76333,-22.24295 -3.68941,-3.31492 -7.37882,-2.60302 -11.06817,-2.49276 0.13416,-2.45482 -0.39083,-4.468038 1.14497,-7.861778 16.60764,-10.14673 40.15448,-1.86828 59.92099,-2.49286 3.74701,-7.56358 3.88139,-18.4547 1.5266,-31.6387 -22.80864,-19.03486 -48.48486,-26.06407 -75.84885,-26.02719 z M 263.5347,148.06163 c -4.47827,10.30429 -11.67896,25.22672 -7.28666,38.23577 -6.84668,4.88548 -10.93413,16.09304 -14.57331,24.40589 -16.74538,-53.37651 6.30394,-60.22037 21.85997,-62.64166 z m -19.14324,95.75988 c 2.86247,5.63101 6.48826,11.87962 9.35073,16.4906 l -14.31233,31.06353 c -0.23852,1.72582 -1.88446,3.06803 1.52665,4.79385 l -11.25907,12.46368 c 4.13472,-30.56153 8.26938,-23.77701 12.40404,-35.66552 1.37945,-9.25101 2.88437,-18.40751 2.28998,-29.14614 z M 400.49139,389.74359 381.98078,529.5297 366.33259,479.29106 c -4.07615,-22.48927 -4.78466,-31.65008 -0.95418,-42.95204 8.4583,-21.23649 25.84409,-42.49533 35.11298,-46.59543 z"
       id="path3346"
       inkscape:connector-curvature="0"
       clip-path="url(#clipPath3384)"
       transform="matrix(1.0754247,0,0,0.89533672,49.866914,342.90344)" />
  </g>
</svg>
